<?xml version="1.0" encoding="utf-8"?>
<!-- Generator: Adobe Illustrator 24.1.0, SVG Export Plug-In . SVG Version: 6.00 Build 0)  -->
<svg version="1.1" id="Calque_1" xmlns="http://www.w3.org/2000/svg" xmlns:xlink="http://www.w3.org/1999/xlink" x="0px" y="0px"
	 viewBox="0 0 24 24" style="enable-background:new 0 0 24 24;" xml:space="preserve">
<path d="M5.7,18.3L5.7,18.3c-0.4-0.4-0.4-1,0-1.4l4.9-4.9L5.7,7.1c-0.4-0.4-0.4-1,0-1.4l0,0c0.4-0.4,1-0.4,1.4,0l4.9,4.9l4.9-4.9
	c0.4-0.4,1-0.4,1.4,0l0,0c0.4,0.4,0.4,1,0,1.4L13.4,12l4.9,4.9c0.4,0.4,0.4,1,0,1.4l0,0c-0.4,0.4-1,0.4-1.4,0L12,13.4l-4.9,4.9
	C6.7,18.7,6.1,18.7,5.7,18.3z"/>
</svg>
