<?xml version="1.0" encoding="utf-8"?>
<!-- Generator: Adobe Illustrator 24.1.0, SVG Export Plug-In . SVG Version: 6.00 Build 0)  -->
<svg version="1.1" id="Calque_1" xmlns="http://www.w3.org/2000/svg" xmlns:xlink="http://www.w3.org/1999/xlink" x="0px" y="0px"
	 viewBox="0 0 56.7 56.7" style="enable-background:new 0 0 56.7 56.7;" xml:space="preserve">
<style type="text/css">
	.st0{fill:#1B3557;}
	.st1{fill:#FFFFFF;}
</style>
<path class="st0" d="M50,56.7H6.7C3,56.7,0,53.7,0,50V6.7C0,3,3,0,6.7,0H50c3.7,0,6.7,3,6.7,6.7V50C56.7,53.7,53.7,56.7,50,56.7z"/>
<g>
	<path class="st1" d="M17.9,42.3h-10v-28H16c4.8,0,7.8,2.5,7.8,6.6c0,3.4-1.1,4.8-2.5,6.1c3.1,1.4,4.7,3.8,4.7,7.2
		C25.9,39,22.4,42.3,17.9,42.3z M13.1,19.1v5.6h3.4c1.2,0,2.2-1.6,2.2-2.9c0-1.8-0.8-2.7-2.6-2.7H13.1z M17.5,29.9h-4.5v7.6h4.8
		c1.7,0,2.9-1.9,2.9-4.2C20.7,31.5,19.6,29.9,17.5,29.9z"/>
	<path class="st1" d="M43.3,36.3H32.8l-2.2,6.1h-5.3l10.2-28h5.2l10.2,28h-5.3L43.3,36.3z M41.6,31.4l-3.6-10l-3.6,10H41.6z"/>
</g>
</svg>
