<?xml version="1.0" encoding="utf-8"?>
<!-- Generator: Adobe Illustrator 24.1.0, SVG Export Plug-In . SVG Version: 6.00 Build 0)  -->
<svg version="1.1" id="Calque_1" xmlns="http://www.w3.org/2000/svg" xmlns:xlink="http://www.w3.org/1999/xlink" x="0px" y="0px"
	 viewBox="0 0 24 24" style="enable-background:new 0 0 24 24;" xml:space="preserve">
<style type="text/css">
	.st0{fill:#FFFFFF;}
</style>
<path class="st0" d="M9,19v-2h12v2H9z M9,13v-2h12v2H9z M9,7V5h12v2H9z M5,20c-0.5,0-1-0.2-1.4-0.6C3.2,19,3,18.5,3,18
	c0-0.6,0.2-1,0.6-1.4S4.5,16,5,16s1,0.2,1.4,0.6S7,17.4,7,18c0,0.5-0.2,1-0.6,1.4C6,19.8,5.6,20,5,20z M5,14c-0.5,0-1-0.2-1.4-0.6
	S3,12.5,3,12s0.2-1,0.6-1.4C4,10.2,4.5,10,5,10s1,0.2,1.4,0.6C6.8,11,7,11.4,7,12s-0.2,1-0.6,1.4S5.6,14,5,14z M5,8
	C4.5,8,4,7.8,3.6,7.4C3.2,7,3,6.5,3,6s0.2-1,0.6-1.4S4.5,4,5,4s1,0.2,1.4,0.6S7,5.4,7,6S6.8,7,6.4,7.4C6,7.8,5.6,8,5,8z"/>
</svg>
