<?xml version="1.0" encoding="utf-8"?>
<!-- Generator: Adobe Illustrator 24.1.0, SVG Export Plug-In . SVG Version: 6.00 Build 0)  -->
<svg version="1.1" id="Calque_1" xmlns="http://www.w3.org/2000/svg" xmlns:xlink="http://www.w3.org/1999/xlink" x="0px" y="0px"
	 viewBox="0 0 161.5 44.1" style="enable-background:new 0 0 161.5 44.1;" xml:space="preserve">
<style type="text/css">
	.st0{fill:#FFFFFF;}
</style>
<g>
	<path class="st0" d="M12.3,34.3H0V0h10c5.9,0,9.5,3,9.5,8.1c0,4.1-1.3,5.9-3.1,7.4c3.8,1.8,5.7,4.7,5.7,8.8
		C22.1,30.2,17.8,34.3,12.3,34.3z M6.4,5.8v6.9h4.1c1.4,0,2.6-2,2.6-3.6c0-2.2-1-3.3-3.1-3.3H6.4z M11.9,19.1H6.4v9.4h5.9
		c2.1,0,3.5-2.4,3.5-5.1C15.8,21.1,14.4,19.1,11.9,19.1z"/>
	<path class="st0" d="M37.2,34.7c-6.8,0.1-12.8-5.8-12.6-12.6c-0.1-6.8,5.8-12.8,12.6-12.6C44,9.3,50,15.2,49.9,22
		C50,28.9,44,34.8,37.2,34.7z M32.8,26.7c1.2,1.2,2.7,1.8,4.5,1.8s3.3-0.6,4.5-1.8c1.2-1.2,1.8-2.8,1.8-4.6s-0.6-3.3-1.8-4.6
		c-1.2-1.2-2.6-1.9-4.5-1.9c-1.8,0-3.3,0.6-4.5,1.9C31.6,18.7,31,20.2,31,22S31.6,25.4,32.8,26.7z"/>
	<path class="st0" d="M74.1,34.3h-6.4V21.4c0-4-1.3-5.8-4.4-5.8s-4.4,1.8-4.4,5.8v12.9h-6.4V21.4c0-8,4.3-12,10.8-12s10.8,4,10.8,12
		C74.1,21.4,74.1,34.3,74.1,34.3z"/>
	<path class="st0" d="M97.7,26.9H84.8l-2.6,7.4h-6.5L88.1,0h6.4l12.4,34.3h-6.5L97.7,26.9z M95.6,20.9L91.2,8.6l-4.4,12.2h8.8V20.9z
		"/>
	<path class="st0" d="M133.6,22c0.1,6.8-5.9,12.8-12.6,12.6c-2.4,0-4.5-0.6-6.2-1.9V44l-6.4-3V22c-0.1-6.8,5.8-12.8,12.6-12.6
		C127.7,9.3,133.7,15.2,133.6,22z M125.4,17.5c-1.2-1.2-2.6-1.9-4.5-1.9c-1.8,0-3.3,0.6-4.5,1.9c-1.2,1.2-1.8,2.7-1.8,4.6
		s0.6,3.4,1.8,4.6c1.2,1.2,2.7,1.8,4.5,1.8s3.3-0.6,4.5-1.8c1.2-1.2,1.8-2.8,1.8-4.6S126.6,18.7,125.4,17.5z"/>
	<path class="st0" d="M161.5,22c0.1,6.8-5.9,12.8-12.6,12.6c-2.4,0-4.5-0.6-6.2-1.9V44l-6.4-3V22c-0.1-6.8,5.8-12.8,12.6-12.6
		C155.6,9.3,161.6,15.2,161.5,22z M153.4,17.5c-1.2-1.2-2.6-1.9-4.5-1.9c-1.8,0-3.3,0.6-4.5,1.9c-1.2,1.2-1.8,2.7-1.8,4.6
		s0.6,3.4,1.8,4.6s2.7,1.8,4.5,1.8s3.3-0.6,4.5-1.8c1.2-1.2,1.8-2.8,1.8-4.6S154.5,18.7,153.4,17.5z"/>
</g>
</svg>
