<?xml version="1.0" encoding="utf-8"?>
<!-- Generator: Adobe Illustrator 24.1.0, SVG Export Plug-In . SVG Version: 6.00 Build 0)  -->
<svg version="1.1" id="Calque_1" xmlns="http://www.w3.org/2000/svg" xmlns:xlink="http://www.w3.org/1999/xlink" x="0px" y="0px"
	 viewBox="0 0 24 24" style="enable-background:new 0 0 24 24;" xml:space="preserve">
<style type="text/css">
	.st0{fill:#FFFFFF;}
</style>
<path class="st0" d="M15,21l-6-2.1l-4.7,1.8c-0.3,0.1-0.6,0.1-0.9-0.1C3.1,20.4,3,20.1,3,19.7v-14c0-0.2,0.1-0.4,0.2-0.6
	C3.3,5,3.5,4.9,3.7,4.8L9,3l6,2.1l4.6-1.8c0.3-0.1,0.6-0.1,0.9,0.1S21,3.9,21,4.2v14c0,0.2-0.1,0.4-0.2,0.6s-0.3,0.3-0.5,0.4L15,21z
	 M14,18.5V6.8l-4-1.4v11.7L14,18.5z M16,18.5l3-1V5.7l-3,1.2V18.5z M5,18.3l3-1.1V5.4l-3,1V18.3z M16,6.8v11.7V6.8z M8,5.4v11.7V5.4
	z"/>
</svg>
