<?xml version="1.0" encoding="utf-8"?>
<!-- Generator: Adobe Illustrator 24.1.0, SVG Export Plug-In . SVG Version: 6.00 Build 0)  -->
<svg version="1.1" id="Calque_1" xmlns="http://www.w3.org/2000/svg" xmlns:xlink="http://www.w3.org/1999/xlink" x="0px" y="0px"
	 viewBox="0 0 24 24" style="enable-background:new 0 0 24 24;" xml:space="preserve">
<g>
	<circle cx="19.4" cy="19.4" r="2.6"/>
	<path d="M16.9,2.9c1.7,1.1,2.9,3,2.9,5.1c0,2.2-1.2,4.1-2.9,5.1V2.9z"/>
	<path d="M13.8,2c-0.7,0-1.4,0.1-2,0.3v7.5c1.5,0.9,2.7,2.4,3.2,4.1c0.3-0.1,0.5-0.1,0.8-0.2V2.3C15.1,2.1,14.5,2,13.8,2z"/>
	<path d="M8,8.8c0.9,0,1.8,0.2,2.6,0.5V2.9C8.9,4,7.7,5.9,7.7,8c0,0.2,0,0.5,0,0.7C7.9,8.8,8,8.8,8,8.8z"/>
	<path d="M8,9.9c-1.6,0-3.1,0.6-4.2,1.7C5,12.3,6.5,12.7,8,12.7s3-0.4,4.2-1.2C11.1,10.5,9.7,9.9,8,9.9z"/>
	<g>
		<path d="M14,15c-2.4,1.1-4,3-4,5.2c0,0.5,0.1,0.9,0.2,1.4c2.3-0.9,3.9-3.1,3.9-5.6C14.1,15.6,14.1,15.3,14,15z"/>
		<path d="M13.7,13.9c-0.2-0.5-0.4-1-0.8-1.5c-1.3,0.9-3,1.4-4.9,1.4s-3.6-0.5-4.9-1.4c-0.3,0.5-0.6,1-0.8,1.5
			c2.9,1.3,4.9,3.6,4.9,6.3c0,0.6-0.1,1.1-0.3,1.7C7.3,22,7.7,22,8,22s0.7,0,1.1-0.1c-0.2-0.5-0.3-1.1-0.3-1.7
			C8.8,17.6,10.8,15.2,13.7,13.9z"/>
		<path d="M2.1,15C2,15.3,2,15.6,2,16c0,2.6,1.6,4.8,3.9,5.6c0.1-0.4,0.2-0.9,0.2-1.4C6.1,18.1,4.5,16.2,2.1,15z"/>
	</g>
</g>
</svg>
