<?xml version="1.0" encoding="utf-8"?>
<!-- Generator: Adobe Illustrator 24.1.0, SVG Export Plug-In . SVG Version: 6.00 Build 0)  -->
<svg version="1.1" id="Calque_1" xmlns="http://www.w3.org/2000/svg" xmlns:xlink="http://www.w3.org/1999/xlink" x="0px" y="0px"
	 viewBox="0 0 24 24" style="enable-background:new 0 0 24 24;" xml:space="preserve">
<path d="M3,21v-2h16v2H3z M7,17c-1.1,0-2-0.4-2.8-1.2S3,14.1,3,13V3h16c0.6,0,1,0.2,1.4,0.6C20.9,4,21,4.4,21,5v3
	c0,0.6-0.2,1-0.6,1.4C20.1,9.8,19.6,10,19,10h-2v3c0,1.1-0.4,2-1.2,2.8S14.1,17,13.1,17H7z M7,15h6c0.5,0,1-0.2,1.4-0.6
	s0.6-0.9,0.6-1.4V5H5v8c0,0.6,0.2,1,0.6,1.4C6,14.8,6.5,15,7,15z M17,8h2V5h-2V8z M7,15H5h10H7z"/>
</svg>
