<?xml version="1.0" encoding="utf-8"?>
<!-- Generator: Adobe Illustrator 24.1.0, SVG Export Plug-In . SVG Version: 6.00 Build 0)  -->
<svg version="1.1" id="_x32_" xmlns="http://www.w3.org/2000/svg" xmlns:xlink="http://www.w3.org/1999/xlink" x="0px" y="0px"
	 viewBox="0 0 24 24" style="enable-background:new 0 0 24 24;" xml:space="preserve">
<g>
	<path d="M5.9,15.9c-0.2,0.2-0.2,0.4,0,0.6l0.2,0.2L3,19.9C3,19.9,3,20,3,20c0,1,0.9,1.2,1.4,0.8l2.9-2.9l0.2,0.2
		c0.2,0.2,0.4,0.2,0.6,0l1.2-1.2l-2.2-2.2L5.9,15.9z"/>
	<rect x="8.4" y="13.4" transform="matrix(0.7071 -0.7071 0.7071 0.7071 -7.8847 10.7895)" width="1.4" height="3.1"/>
	<path d="M12.2,12.9l5.1-5.1c0.2-0.2,0.2-0.5,0-0.7l-0.5-0.5c-0.2-0.2-0.5-0.2-0.7,0l-5.1,5.1l-0.2-0.2c-0.2-0.2-0.4-0.1-0.6,0
		L8.9,13l2.2,2.2l1.4-1.4c0.2-0.2,0.2-0.4,0-0.6L12.2,12.9z"/>
	<path d="M10.7,11L15,6.7l0-0.1c0-0.3-0.4-3.1-1.5-3.5c-0.4-0.1-0.8,0-1.3,0.4c-2,2-1.6,6.7-1.6,6.9L10.7,11z"/>
	<path d="M21,10.5c-0.4-1.1-3.2-1.5-3.5-1.5l-0.1,0l-4.3,4.3l0.5,0.1c0.2,0,4.9,0.5,6.9-1.6l0,0C21,11.4,21.1,10.9,21,10.5z"/>
</g>
</svg>
