<?xml version="1.0" encoding="utf-8"?>
<!-- Generator: Adobe Illustrator 24.1.0, SVG Export Plug-In . SVG Version: 6.00 Build 0)  -->
<svg version="1.1" id="Calque_1" xmlns="http://www.w3.org/2000/svg" xmlns:xlink="http://www.w3.org/1999/xlink" x="0px" y="0px"
	 viewBox="0 0 24 24" style="enable-background:new 0 0 24 24;" xml:space="preserve">
<g id="XMLID_153_">
	<path id="XMLID_159_" d="M21.5,7.7c-0.1-0.4-0.3-0.7-0.7-0.8l-6.5-3.7c-0.7-0.4-1.5-0.1-1.9,0.5l-0.5,0.9L13.1,5l0.4-0.6
		c0,0,0.1-0.1,0.1-0.1c0,0,0,0,0.1,0L20.2,8c0,0,0,0,0.1,0.1c0,0,0,0.1,0,0.1l-4.1,7.3l-0.9,3.1c0.4-0.1,0.8-0.3,1.1-0.7l5.1-9.1
		C21.5,8.4,21.6,8,21.5,7.7z"/>
	<path id="XMLID_158_" d="M17.1,7.6c-0.2-0.3-0.5-0.6-0.8-0.7L9,4.7C8.3,4.5,7.5,5,7.3,5.7L7,6.8h1.3L8.5,6C8.5,6,8.6,6,8.7,6
		c0,0,0,0,0,0l3,0.9c0.2,0,0.4,0.1,0.6,0.2l3.5,1.1c0,0,0.1,0,0.1,0.1c0,0,0,0.1,0,0.1l-2.2,7.4v3.6c0.2-0.2,0.4-0.4,0.4-0.7l3-10
		C17.3,8.3,17.2,7.9,17.1,7.6z"/>
	<path id="XMLID_155_" d="M11.4,7.8H3.9c-0.8,0-1.4,0.6-1.4,1.4v10.4c0,0.8,0.6,1.4,1.4,1.4h7.5c0.8,0,1.4-0.6,1.4-1.4V9.2
		C12.8,8.4,12.1,7.8,11.4,7.8z M11.5,19.6c0,0.1-0.1,0.1-0.1,0.1H3.9c-0.1,0-0.1-0.1-0.1-0.1V9.2c0-0.1,0.1-0.1,0.1-0.1h7.5
		c0.1,0,0.1,0.1,0.1,0.1L11.5,19.6L11.5,19.6z"/>
	<path id="XMLID_154_" d="M9.1,13.2C9.1,13.2,9.1,13.2,9.1,13.2c0-0.2,0.1-0.4,0.1-0.6c0-0.8-0.6-1.4-1.4-1.4
		c-0.8,0-1.4,0.6-1.4,1.4c0,0.2,0.1,0.4,0.1,0.6c0,0,0,0,0,0c-0.8,0-1.4,0.6-1.4,1.4c0,0.8,0.6,1.4,1.4,1.4c0.2,0,0.4-0.1,0.6-0.1
		l-0.2,1.5c0,0.1,0,0.2,0.1,0.2c0.1,0.1,0.1,0.1,0.2,0.1h1.3c0.1,0,0.2,0,0.2-0.1c0.1-0.1,0.1-0.1,0.1-0.2l-0.2-1.5
		C8.7,15.9,8.9,16,9.1,16c0.8,0,1.4-0.6,1.4-1.4C10.5,13.8,9.9,13.2,9.1,13.2z"/>
</g>
</svg>
