<?xml version="1.0" encoding="utf-8"?>
<!-- Generator: Adobe Illustrator 24.1.0, SVG Export Plug-In . SVG Version: 6.00 Build 0)  -->
<svg version="1.1" id="Calque_1" xmlns="http://www.w3.org/2000/svg" xmlns:xlink="http://www.w3.org/1999/xlink" x="0px" y="0px"
	 viewBox="0 0 24 24" style="enable-background:new 0 0 24 24;" xml:space="preserve">
<path d="M3.8,17.6L12.3,7c0,0,0-1.8,1.5-3c1.8-1.5,4.6-1.3,6,0.4c1.5,1.6,1.9,4.3-0.1,6.2c-1.2,1.2-2.6,1.2-2.6,1.2
	L6.4,20.2l-1-1L3.4,21c0,0-0.2,0.1-0.3-0.1C2.9,20.7,3,20.5,3,20.5l1.9-1.8L3.8,17.6L3.8,17.6z M5.8,17.5l0.6,0.6l8.4-6.6
	c0,0-0.9-0.5-1.4-1.1c-0.5-0.6-0.9-1.3-0.9-1.3L5.8,17.5L5.8,17.5z M14.3,5.6c0,0-1.5,2.1,0.3,3.7c1.8,1.7,3.8,0.3,3.8,0.3
	s-1.8-0.4-2.8-1.4C14.6,7.3,14.3,5.6,14.3,5.6L14.3,5.6z M14.9,5.1c0,0,0.4,1.6,1.4,2.6c1,1,2.6,1.4,2.6,1.4s1.4-2.2-0.4-3.8
	C16.7,3.6,14.9,5.1,14.9,5.1L14.9,5.1z"/>
</svg>
