<?xml version="1.0" encoding="utf-8"?>
<!-- Generator: Adobe Illustrator 24.1.0, SVG Export Plug-In . SVG Version: 6.00 Build 0)  -->
<svg version="1.1" id="Calque_1" xmlns="http://www.w3.org/2000/svg" xmlns:xlink="http://www.w3.org/1999/xlink" x="0px" y="0px"
	 viewBox="0 0 24 24" style="enable-background:new 0 0 24 24;" xml:space="preserve">
<g>
	<g>
		<path d="M6.4,7.3h1.5c0.3,0,0.6-0.3,0.6-0.6v0c0-0.3-0.3-0.6-0.6-0.6H6.4c-0.3,0-0.6,0.3-0.6,0.6v0C5.8,7,6.1,7.3,6.4,7.3z"/>
		<path d="M2.6,7.3h1.5c0.3,0,0.6-0.3,0.6-0.6v0c0-0.3-0.3-0.6-0.6-0.6H2.6C2.3,6.1,2,6.3,2,6.7v0C2,7,2.3,7.3,2.6,7.3z"/>
		<path d="M10.3,4.9h0.6v3.5h-0.6c-0.3,0-0.6-0.3-0.6-0.6V5.5C9.7,5.2,9.9,4.9,10.3,4.9z"/>
		<path d="M21,3.1h-4.3l0.2-0.6C17,2.3,17.4,2,17.8,2h2.9c0.4,0,0.6,0.3,0.5,0.6L21,3.1z"/>
		<path d="M12.6,4.3h8.8c0.3,0,0.6,0.3,0.6,0.6v3.5C22,8.7,21.7,9,21.4,9h-0.5l1.1,3.8c0.1,0.3-0.1,0.6-0.4,0.6h-2.4
			c-0.3,0-0.7-0.3-0.8-0.6L18,11.4h-1.3c-1.1,0-2.1-0.9-2.1-2.1V9h-2C12.3,9,12,8.7,12,8.4V4.9C12,4.6,12.3,4.3,12.6,4.3z M15.7,9.3
			c0,0.5,0.4,0.9,0.9,0.9h1L17.3,9h-1.5V9.3z"/>
	</g>
	<g>
		<path d="M17.6,15.8h-1.5c-0.3,0-0.6-0.3-0.6-0.6v0c0-0.3,0.3-0.6,0.6-0.6h1.5c0.3,0,0.6,0.3,0.6,0.6v0
			C18.2,15.6,17.9,15.8,17.6,15.8z"/>
		<path d="M21.4,15.8h-1.5c-0.3,0-0.6-0.3-0.6-0.6v0c0-0.3,0.3-0.6,0.6-0.6h1.5c0.3,0,0.6,0.3,0.6,0.6v0
			C22,15.6,21.7,15.8,21.4,15.8z"/>
		<path d="M13.7,13.5h-0.6V17h0.6c0.3,0,0.6-0.3,0.6-0.6v-2.3C14.3,13.8,14.1,13.5,13.7,13.5z"/>
		<path d="M3,11.7h4.3l-0.2-0.6c-0.1-0.3-0.5-0.6-0.9-0.6H3.3c-0.4,0-0.6,0.3-0.5,0.6L3,11.7z"/>
		<path d="M11.4,12.9H2.6c-0.3,0-0.6,0.3-0.6,0.6V17c0,0.3,0.3,0.6,0.6,0.6h0.5L2,21.4C1.9,21.7,2.1,22,2.4,22h2.4
			c0.3,0,0.7-0.3,0.8-0.6L6,19.9h1.3c1.1,0,2.1-0.9,2.1-2.1v-0.3h2c0.3,0,0.6-0.3,0.6-0.6v-3.5C12,13.2,11.7,12.9,11.4,12.9z
			 M8.3,17.9c0,0.5-0.4,0.9-0.9,0.9h-1l0.3-1.2h1.5V17.9z"/>
	</g>
</g>
</svg>
