<?xml version="1.0" encoding="utf-8"?>
<!-- Generator: Adobe Illustrator 24.1.0, SVG Export Plug-In . SVG Version: 6.00 Build 0)  -->
<svg version="1.1" id="Calque_1" xmlns="http://www.w3.org/2000/svg" xmlns:xlink="http://www.w3.org/1999/xlink" x="0px" y="0px"
	 viewBox="0 0 24 24" style="enable-background:new 0 0 24 24;" xml:space="preserve">
<path d="M12.1,3c-0.1,0-0.1,0-0.2,0L3.5,7.4C3.4,7.5,3.3,7.7,3.3,7.8V9c0,0.2,0.2,0.4,0.4,0.4h0.4V10c0,0.5,0.3,0.9,0.8,1v7.2H3.7
	l0.1,0c-0.5-0.1-0.9,0.3-0.9,0.8v1.1c0,0.5,0.4,0.9,0.8,0.9h16.7c0.5,0,0.8-0.4,0.8-0.8v-1.1c0-0.5-0.4-0.8-0.8-0.8h-1.1V11
	c0.5-0.1,0.8-0.5,0.8-1V9.4h0.4c0.2,0,0.4-0.2,0.4-0.4V7.8c0-0.1-0.1-0.3-0.2-0.4L12.3,3C12.2,3,12.1,3,12.1,3z M12.1,3.9l8,4.2v0.6
	h-0.3c0,0-0.1,0-0.1,0h-3.9c0,0,0,0-0.1,0c0,0,0,0-0.1,0h-1.5c0,0-0.1,0-0.1,0h-3.9c0,0,0,0-0.1,0c0,0,0,0-0.1,0H8.5
	c0,0-0.1,0-0.1,0H4.5c0,0,0,0-0.1,0c0,0,0,0-0.1,0H4.1V8L12.1,3.9z M4.9,9.4h3.2V10c0,0.2-0.1,0.2-0.2,0.2H5.1
	c-0.2,0-0.2-0.1-0.2-0.2V9.4z M8.9,9.4h0.8V10c0,0.5,0.3,0.9,0.8,1v7.2H8.1V11c0.5-0.1,0.8-0.5,0.8-1V9.4z M10.5,9.4h3.2V10
	c0,0.2-0.1,0.2-0.2,0.2h-2.7c-0.2,0-0.2-0.1-0.2-0.2V9.4z M14.5,9.4h0.8V10c0,0.5,0.3,0.9,0.8,1v7.2h-2.4V11c0.5-0.1,0.8-0.5,0.8-1
	V9.4z M16.1,9.4h3.2V10c0,0.2-0.1,0.2-0.2,0.2h-2.7c-0.2,0-0.2-0.1-0.2-0.2V9.4z M5.7,11h1.6v7.2H5.7V11z M11.3,11h1.6v7.2h-1.6V11z
	 M16.9,11h1.6v7.2h-1.6V11z M3.7,19C3.7,19,3.7,19,3.7,19l16.7,0c0,0,0,0,0,0v1.1c0,0,0,0,0,0H3.7c0,0,0,0,0-0.1L3.7,19
	C3.7,19,3.7,19,3.7,19z"/>
</svg>
