<?xml version="1.0" encoding="utf-8"?>
<!-- Generator: Adobe Illustrator 24.1.0, SVG Export Plug-In . SVG Version: 6.00 Build 0)  -->
<svg version="1.1" id="Calque_1" xmlns="http://www.w3.org/2000/svg" xmlns:xlink="http://www.w3.org/1999/xlink" x="0px" y="0px"
	 viewBox="0 0 24 24" style="enable-background:new 0 0 24 24;" xml:space="preserve">
<path d="M11.3,22.7c-1.4,0-2.7-0.3-3.9-0.8c-1.2-0.5-2.3-1.3-3.2-2.2s-1.6-2-2.2-3.2S1.2,14,1.2,12.6C1.2,10.2,2,8,3.5,6.2
	s3.5-3,5.9-3.5C9.1,4.3,9.2,6,9.7,7.5s1.3,3,2.5,4.1c1.2,1.2,2.6,2,4.1,2.5c1.6,0.5,3.2,0.6,4.8,0.3c-0.4,2.4-1.6,4.4-3.5,5.9
	C15.9,21.9,13.7,22.7,11.3,22.7z M11.3,20.7c1.5,0,2.8-0.4,4.1-1.1s2.2-1.7,3-3c-1.4-0.1-2.8-0.5-4.1-1.1s-2.4-1.4-3.4-2.4
	S9,10.9,8.4,9.6S7.4,7,7.3,5.5C6,6.3,5,7.3,4.3,8.5s-1.1,2.6-1.1,4.1c0,2.3,0.8,4.2,2.4,5.7C7.1,19.9,9,20.7,11.3,20.7z"/>
<polygon points="22.8,8.1 20.2,8.1 20.2,5.5 18.2,5.5 18.2,8.1 15.6,8.1 15.6,10.1 18.2,10.1 18.2,12.7 20.2,12.7 20.2,10.1 
	22.8,10.1 "/>
<polygon points="16.1,3.2 14.2,3.2 14.2,1.3 12.8,1.3 12.8,3.2 10.9,3.2 10.9,4.6 12.8,4.6 12.8,6.5 14.2,6.5 14.2,4.6 16.1,4.6 "/>
</svg>
