<?xml version="1.0" encoding="utf-8"?>
<!-- Generator: Adobe Illustrator 24.1.0, SVG Export Plug-In . SVG Version: 6.00 Build 0)  -->
<svg version="1.1" id="Calque_1" xmlns="http://www.w3.org/2000/svg" xmlns:xlink="http://www.w3.org/1999/xlink" x="0px" y="0px"
	 viewBox="0 0 24 24" style="enable-background:new 0 0 24 24;" xml:space="preserve">
<g>
	<path d="M13.3,11.6c0.4-0.3,0.7-0.8,0.7-1.3c0-1-0.9-1.7-1.9-1.7c-1,0-1.9,0.7-1.9,1.7c0,0.6,0.3,1,0.7,1.3
		c-0.6,0.3-0.9,0.8-0.9,1.5c0,1.2,1,2,2.2,2c1.2,0,2.2-0.8,2.2-2C14.2,12.4,13.8,11.9,13.3,11.6z M12,9.8c0.4,0,0.6,0.3,0.6,0.7
		c0,0.4-0.2,0.7-0.6,0.7s-0.6-0.3-0.6-0.7h0C11.4,10.1,11.6,9.8,12,9.8z M12,13.9c-0.5,0-0.8-0.4-0.8-0.9c0-0.5,0.3-0.9,0.8-0.9
		c0.5,0,0.8,0.3,0.8,0.9C12.8,13.5,12.5,13.9,12,13.9z"/>
	<path d="M12,3c-5,0-9,4-9,9s4,9,9,9s9-4,9-9S17,3,12,3z M12,16.5c-2.5,0-4.5-2-4.5-4.5s2-4.5,4.5-4.5s4.5,2,4.5,4.5
		S14.5,16.5,12,16.5z"/>
</g>
</svg>
