<?xml version="1.0" encoding="utf-8"?>
<!-- Generator: Adobe Illustrator 24.1.0, SVG Export Plug-In . SVG Version: 6.00 Build 0)  -->
<svg version="1.1" id="Calque_1" xmlns="http://www.w3.org/2000/svg" xmlns:xlink="http://www.w3.org/1999/xlink" x="0px" y="0px"
	 viewBox="0 0 24 24" style="enable-background:new 0 0 24 24;" xml:space="preserve">
<g id="primary-2">
	<path d="M18,18H6c-2.2,0-4-1.8-4-4v-4c0-2.2,1.8-4,4-4h12c2.2,0,4,1.8,4,4v4C22,16.2,20.2,18,18,18z M4,12v2c0,1.1,0.9,2,2,2h12
		c1.1,0,2-0.9,2-2v-2H4z M4,10h16c0-1.1-0.9-2-2-2H6C4.9,8,4,8.9,4,10z"/>
</g>
</svg>
